# xmcd CD database file
#
# Track frame offsets:
#	150
#	900
#	1650
#	2400
#	3150
#	3900
#	4650
#	5400
#	6150
#	6900
#	7650
#	8400
#	9150
#	9900
#
# Disc length: 3562 seconds
#
# Revision: 0
# Processed by: cddbd v1.5.2PL0 Copyright (c) Steve Scherf et al.
# Submitted via: CDex 1.51
#
DISCID=530de80e
DTITLE=KASEY CHAMBERS - WAYWARD ANGEL
DYEAR=2004
DGENRE=Country
TTITLE0=PONY
TTITLE1=HOLLYWOOD
TTITLE2=STRONGER
TTITLE3=BLUEBIRD
TTITLE4=MORE THAN ORDINARY
TTITLE5=WAYWARD ANGEL
TTITLE6=PAPER AEROPLANE
TTITLE7=LIKE A RIVER
TTITLE8=FOR SALE
TTITLE9=FOLLOW YOUR HOME
TTITLE10=MOTHER
TTITLE11=GUILTY AS SIN
TTITLE12=LOAST and FOUND
TTITLE13=SATURATED
EXTD=YEAR: 2004
EXTT0=
EXTT1=
EXTT2=
EXTT3=
EXTT4=
EXTT5=
EXTT6=
EXTT7=
EXTT8=
EXTT9=
EXTT10=
EXTT11=
EXTT12=
EXTT13=
PLAYORDER=
